<?xml version="1.0" standalone="no"?>
<!DOCTYPE svg PUBLIC "-//W3C//DTD SVG 20010904//EN"
 "http://www.w3.org/TR/2001/REC-SVG-20010904/DTD/svg10.dtd">
<svg version="1.0" xmlns="http://www.w3.org/2000/svg"
 width="500.000000pt" height="500.000000pt" viewBox="0 0 500.000000 500.000000"
 preserveAspectRatio="xMidYMid meet">
<metadata>
Created by potrace 1.14, written by Peter Selinger 2001-2017
</metadata>
<g transform="translate(0.000000,500.000000) scale(0.100000,-0.100000)"
fill="#000000" stroke="none">
<path d="M755 3286 c-26 -19 -16 -60 16 -64 14 -2 31 4 39 12 11 14 187 16
1690 16 1503 0 1679 -2 1690 -16 8 -8 25 -14 39 -12 32 4 42 45 16 64 -17 13
-55 8 -55 -7 0 -5 -719 -9 -1690 -9 -971 0 -1690 4 -1690 9 0 15 -38 20 -55 7z
m43 -28 c-7 -19 -38 -22 -38 -4 0 10 9 16 21 16 12 0 19 -5 17 -12z m3442 -4
c0 -9 -7 -14 -17 -12 -25 5 -28 28 -4 28 12 0 21 -6 21 -16z"/>
<path d="M735 3142 c-43 -20 -95 -73 -121 -125 -22 -41 -22 -156 -1 -214 15
-41 15 -45 -7 -95 -34 -76 -46 -146 -46 -256 0 -249 121 -442 276 -442 12 0
46 8 75 17 105 34 210 175 256 343 14 51 18 100 17 225 -1 143 -3 169 -27 248
-36 116 -69 179 -122 232 -61 62 -98 78 -185 82 -58 3 -84 0 -115 -15z m182
-23 c64 -31 112 -85 154 -174 54 -116 74 -215 73 -365 0 -187 -36 -308 -126
-428 -174 -233 -398 -82 -415 279 -4 86 -2 120 16 189 11 46 23 85 26 88 3 3
26 -17 53 -45 55 -57 115 -95 197 -123 65 -23 75 -24 75 -11 0 5 -17 15 -37
21 -132 42 -247 156 -278 276 -28 106 -16 176 39 241 64 74 141 92 223 52z"/>
<path d="M3920 3023 c-41 -21 -90 -90 -120 -171 -18 -46 -21 -70 -17 -127 5
-60 2 -76 -17 -114 l-23 -44 -23 32 c-19 27 -21 37 -11 57 6 14 11 34 11 45 0
17 -171 282 -206 318 -11 13 -14 12 -19 -1 -4 -10 22 -62 69 -138 42 -67 76
-128 76 -136 0 -36 -33 -4 -108 106 -83 120 -98 137 -110 125 -6 -6 5 -28 99
-202 43 -78 47 -96 23 -91 -9 2 -41 44 -71 93 -91 151 -102 165 -118 159 -17
-7 -22 4 88 -192 44 -78 89 -148 100 -153 10 -6 30 -9 43 -6 20 4 30 -5 63
-58 l40 -63 -69 -130 c-37 -71 -89 -166 -114 -209 -65 -113 -63 -183 5 -183
44 0 65 28 129 173 33 76 72 161 86 189 l26 51 40 -69 c22 -38 65 -116 96
-174 67 -128 95 -160 137 -160 41 0 55 16 55 61 0 28 -13 55 -54 115 -86 123
-208 316 -213 334 -2 9 12 50 32 92 28 57 44 79 66 88 92 38 189 229 165 324
-14 55 -99 87 -156 59z m129 -40 c33 -38 25 -102 -24 -199 -62 -122 -151 -172
-208 -116 -18 19 -22 33 -22 90 1 55 7 78 33 129 39 76 85 131 115 135 37 6
81 -10 106 -39z m-429 -136 c108 -161 109 -168 24 -223 -68 -43 -94 -40 -128
14 -49 78 -157 274 -153 279 4 4 40 -52 136 -209 16 -27 30 -38 47 -38 31 0
32 25 1 82 -13 24 -43 79 -67 122 -24 44 -39 77 -34 73 5 -3 43 -55 84 -116
58 -86 80 -111 98 -111 36 0 27 38 -31 131 -131 209 -119 207 23 -4z m205
-207 c3 -5 15 -10 25 -10 16 0 8 -22 -55 -152 -41 -84 -109 -232 -152 -328
-61 -136 -84 -178 -106 -190 -35 -20 -61 -5 -65 39 -3 25 16 68 86 194 49 89
124 228 167 310 42 81 81 147 85 147 5 0 12 -4 15 -10z m-115 -47 c21 -36 21
-37 4 -76 -18 -38 -18 -38 -34 -17 -9 12 -25 37 -35 57 l-19 35 24 19 c33 25
35 25 60 -18z m225 -351 c71 -108 131 -209 133 -225 8 -54 -48 -78 -87 -36
-11 12 -66 105 -121 207 l-102 185 18 33 c10 19 21 34 24 33 3 0 63 -89 135
-197z"/>
<path d="M4033 2917 c0 -76 -68 -178 -146 -216 -23 -12 -36 -21 -28 -21 30 0
102 52 131 95 48 70 75 164 52 179 -5 3 -9 -14 -9 -37z"/>
<path d="M1296 2884 c-9 -8 -24 -41 -33 -72 -15 -47 -18 -96 -18 -287 0 -214
1 -232 21 -265 39 -66 102 -63 146 8 l20 33 12 -23 c15 -30 61 -36 87 -12 19
17 20 17 26 -4 3 -12 13 -24 24 -27 20 -7 68 15 88 39 18 21 28 20 36 -3 8
-26 39 -35 65 -21 17 9 25 8 39 -4 10 -9 32 -16 49 -16 38 0 72 39 72 83 0 26
3 29 23 23 12 -3 30 -6 41 -6 14 0 17 -5 12 -25 -7 -26 8 -65 23 -65 5 0 14
23 21 51 13 53 42 89 72 89 30 0 31 -26 3 -75 -31 -53 -29 -66 5 -30 l23 25
11 -23 c16 -30 74 -35 106 -9 24 20 24 20 35 -2 27 -54 109 -57 189 -5 34 21
46 25 46 14 0 -8 11 -22 24 -30 32 -21 70 -11 101 28 22 29 24 30 31 12 17
-47 79 -49 123 -4 17 17 31 35 31 40 0 5 10 9 21 9 19 0 21 -4 15 -43 -9 -58
0 -77 34 -77 20 0 37 10 58 35 28 35 29 35 47 15 37 -41 148 -19 221 43 28 24
33 25 44 12 11 -13 9 -20 -9 -38 -26 -29 -27 -43 -2 -57 47 -25 89 5 77 54 -4
17 2 26 25 40 40 24 30 32 -12 10 -33 -16 -33 -16 -56 12 -30 38 -29 52 5 56
22 4 24 6 9 12 -9 5 -29 5 -43 2 -24 -6 -26 -11 -21 -40 5 -33 4 -34 -65 -70
-84 -43 -121 -46 -144 -11 -22 34 -10 65 26 65 44 0 80 17 80 39 0 23 -39 32
-86 20 -38 -11 -74 -51 -74 -84 0 -29 -41 -89 -63 -93 -15 -3 -17 5 -17 58 0
61 0 61 -27 58 -25 -3 -28 0 -25 25 3 21 -1 27 -16 27 -22 0 -34 -32 -26 -66
4 -15 -2 -27 -22 -43 -30 -24 -33 -24 -54 -11 -11 7 -14 25 -12 70 1 45 -1 60
-11 60 -8 0 -17 -3 -21 -7 -4 -4 -22 -6 -41 -5 -44 4 -91 -21 -110 -59 -11
-21 -35 -39 -78 -60 -95 -45 -141 -37 -139 23 1 39 44 83 71 73 27 -11 33 -10
38 1 5 15 -42 27 -70 18 -12 -3 -47 -33 -78 -66 -52 -55 -58 -59 -79 -48 -20
11 -22 18 -18 66 5 55 -2 71 -24 58 -7 -4 -31 -7 -54 -5 -35 2 -48 -3 -78 -29
-41 -37 -65 -34 -96 11 -31 43 -50 38 -50 -13 0 -66 -18 -118 -39 -118 -21 0
-41 45 -41 91 0 21 -5 29 -18 29 -13 0 -22 -13 -31 -50 -15 -57 -35 -62 -39
-9 -4 57 -12 79 -27 79 -11 0 -15 -11 -15 -39 0 -32 -6 -44 -31 -66 -51 -42
-64 -32 -67 53 -2 60 -6 73 -19 70 -9 -2 -23 -27 -34 -64 -30 -96 -69 -96 -69
-1 0 41 -3 48 -17 45 -12 -2 -20 -16 -24 -40 -7 -43 -50 -104 -81 -114 -26 -8
-44 13 -59 70 -12 45 -11 52 31 165 59 162 77 364 36 410 -23 25 -39 26 -60 5z
m56 -50 c12 -41 -9 -210 -38 -311 -13 -46 -24 -85 -24 -88 0 -3 -3 -5 -7 -5
-16 0 15 402 33 432 10 16 28 3 36 -28z m1766 -446 c-3 -7 -15 -14 -29 -16
-23 -2 -23 -2 -5 13 24 18 39 20 34 3z m-436 -33 c-4 -26 -55 -89 -74 -93 -34
-7 -28 60 10 101 22 25 68 19 64 -8z m638 -105 c0 -19 -11 -26 -23 -14 -8 8 3
34 14 34 5 0 9 -9 9 -20z"/>
<path d="M2050 2245 c0 -8 5 -15 10 -15 6 0 10 7 10 15 0 8 -4 15 -10 15 -5 0
-10 -7 -10 -15z"/>
<path d="M747 1623 c-12 -12 -7 -50 8 -63 15 -12 55 -5 55 11 0 5 651 9 1690
9 1039 0 1690 -4 1690 -9 0 -14 34 -23 54 -15 27 11 17 68 -12 72 -13 2 -31
-3 -41 -12 -16 -14 -181 -16 -1693 -16 -1471 0 -1677 2 -1688 15 -13 15 -51
20 -63 8z m48 -33 c0 -22 -29 -18 -33 3 -3 14 1 18 15 15 10 -2 18 -10 18 -18z
m3445 6 c0 -21 -21 -31 -30 -15 -5 7 -6 17 -4 21 9 14 34 9 34 -6z"/>
</g>
</svg>
