<?xml version="1.0" standalone="no"?>
<!DOCTYPE svg PUBLIC "-//W3C//DTD SVG 20010904//EN"
 "http://www.w3.org/TR/2001/REC-SVG-20010904/DTD/svg10.dtd">
<svg version="1.0" xmlns="http://www.w3.org/2000/svg"
 width="170.000000pt" height="170.000000pt" viewBox="0 0 170.000000 170.000000"
 preserveAspectRatio="xMidYMid meet">
<metadata>
Created by potrace 1.14, written by Peter Selinger 2001-2017
</metadata>
<g transform="translate(0.000000,170.000000) scale(0.100000,-0.100000)"
fill="#000000" stroke="none">
<path d="M256 1112 c-3 -5 1 -9 9 -9 8 0 12 4 9 9 -3 4 -7 8 -9 8 -2 0 -6 -4
-9 -8z"/>
<path d="M1426 1112 c-3 -5 1 -9 9 -9 8 0 15 4 15 9 0 4 -4 8 -9 8 -6 0 -12
-4 -15 -8z"/>
<path d="M224 1049 c-12 -14 -19 -38 -20 -77 -2 -31 -6 -83 -10 -115 -7 -65
14 -140 46 -157 25 -13 40 -12 17 1 -41 24 -68 146 -44 203 7 19 8 18 30 -1
27 -25 67 -46 74 -40 2 3 -5 8 -16 12 -11 3 -34 22 -50 41 -41 46 -43 103 -5
133 17 13 21 21 12 21 -8 0 -23 -9 -34 -21z"/>
<path d="M316 1058 c35 -16 66 -84 71 -153 7 -79 -16 -154 -58 -190 -36 -29
-23 -34 13 -5 78 61 81 257 6 337 -12 13 -29 23 -37 22 -11 0 -10 -3 5 -11z"/>
<path d="M430 955 c-13 -34 -13 -161 0 -186 6 -10 16 -19 22 -19 7 0 6 5 -2
15 -8 9 -10 29 -7 50 3 20 2 33 -3 30 -5 -3 -7 17 -4 47 8 76 16 90 25 43 l7
-40 -2 39 c-1 47 -22 59 -36 21z"/>
<path d="M451 874 c0 -11 3 -14 6 -6 3 7 2 16 -1 19 -3 4 -6 -2 -5 -13z"/>
<path d="M525 800 c-8 -25 -25 -26 -25 -2 0 14 -2 15 -10 2 -11 -18 1 -32 33
-36 20 -2 23 1 19 27 -5 34 -8 36 -17 9z"/>
<path d="M646 795 c-7 -27 -26 -34 -26 -10 0 18 -16 20 -23 3 -3 -8 -6 -6 -6
5 -1 20 -21 24 -21 3 0 -18 19 -31 51 -34 19 -2 28 3 37 22 6 14 7 28 3 31 -5
2 -12 -6 -15 -20z"/>
<path d="M695 806 c-13 -9 -16 -19 -10 -32 7 -17 8 -17 14 5 4 14 13 27 20 29
10 3 12 0 8 -11 -4 -11 1 -21 15 -28 18 -10 20 -9 15 6 -4 9 -7 23 -7 31 0 18
-30 18 -55 0z"/>
<path d="M867 794 c-39 -33 -94 -31 -66 3 8 9 8 13 1 13 -6 0 -16 -9 -22 -19
-8 -16 -6 -21 8 -25 24 -7 109 -2 118 6 4 4 14 2 22 -5 13 -10 15 -9 9 6 -4
10 -7 24 -7 31 0 20 -34 15 -63 -10z m43 9 c0 -5 -4 -15 -10 -23 -11 -18 -25
-7 -17 15 6 15 27 21 27 8z"/>
<path d="M1030 805 c-17 -21 -5 -45 22 -44 17 1 18 2 6 6 -22 5 -24 33 -3 33
8 0 15 5 15 10 0 15 -26 12 -40 -5z"/>
<path d="M1114 788 c2 -18 8 -34 15 -36 14 -5 15 34 1 43 -6 4 -8 11 -5 16 4
5 1 9 -4 9 -6 0 -9 -14 -7 -32z"/>
<path d="M960 800 c0 -6 5 -10 10 -10 6 0 10 -9 10 -20 0 -11 4 -20 9 -20 13
0 0 48 -15 54 -8 3 -14 1 -14 -4z"/>
<path d="M250 538 c0 -4 7 -8 15 -8 8 0 15 4 15 8 0 5 -7 9 -15 9 -8 0 -15 -4
-15 -9z"/>
<path d="M1420 538 c0 -4 7 -8 15 -8 8 0 15 4 15 8 0 5 -7 9 -15 9 -8 0 -15
-4 -15 -9z"/>
</g>
</svg>
