<?xml version="1.0" standalone="no"?>
<!DOCTYPE svg PUBLIC "-//W3C//DTD SVG 20010904//EN"
 "http://www.w3.org/TR/2001/REC-SVG-20010904/DTD/svg10.dtd">
<svg version="1.0" xmlns="http://www.w3.org/2000/svg"
 width="170.000000pt" height="55.000000pt" viewBox="0 0 170.000000 55.000000"
 preserveAspectRatio="xMidYMid meet">
<metadata>
Created by potrace 1.14, written by Peter Selinger 2001-2017
</metadata>
<g transform="translate(0.000000,55.000000) scale(0.100000,-0.100000)"
fill="#000000" stroke="none">
<path d="M500 501 c0 -31 9 -68 25 -103 35 -75 35 -179 0 -248 -42 -83 -44
-82 106 -79 116 3 127 4 105 16 -29 15 -33 35 -11 53 18 15 55 4 55 -16 0 -11
-6 -14 -22 -9 -22 6 -22 5 -3 -6 26 -16 34 -29 28 -46 -3 -8 2 -13 16 -13 19
0 21 6 21 50 0 38 4 50 15 50 11 0 15 -12 15 -50 0 -43 3 -50 20 -50 17 0 20
7 20 50 0 56 16 66 43 27 l16 -22 0 23 c1 13 7 22 16 22 11 0 15 -12 15 -50 0
-49 1 -50 30 -50 27 0 29 2 19 18 -28 44 16 96 61 72 31 -17 25 -33 -10 -25
-26 6 -30 4 -30 -14 0 -25 18 -37 33 -22 17 17 30 13 24 -9 -4 -16 0 -20 19
-20 22 0 24 4 24 50 0 49 1 50 30 50 33 0 43 -25 13 -33 -17 -4 -17 -5 0 -6
21 -1 23 -21 2 -21 -8 0 -15 -4 -15 -10 0 -5 7 -10 15 -10 8 0 15 -4 15 -10 0
-5 25 -10 56 -10 l57 0 -6 50 c-5 45 -4 50 13 50 17 0 20 -7 20 -50 0 -45 2
-50 23 -50 20 0 23 5 22 47 0 38 4 48 18 51 31 6 49 -18 45 -60 -3 -35 -2 -38
22 -38 24 0 26 3 25 48 0 46 1 47 30 47 29 0 30 -1 30 -48 0 -44 2 -47 25 -47
24 0 26 3 22 35 -5 39 11 65 39 65 21 0 29 -12 40 -54 4 -17 7 78 8 212 l1
242 -600 0 -600 0 0 -49z m389 -15 c6 -7 8 -21 5 -30 -5 -14 4 -12 49 10 31
16 59 25 63 21 16 -15 -10 -36 -92 -76 -55 -26 -84 -45 -78 -51 5 -5 35 -25
67 -44 l57 -35 0 25 c0 14 7 39 16 57 17 34 93 117 106 117 14 0 8 -55 -9 -80
-9 -14 -29 -39 -46 -57 -18 -19 -27 -38 -24 -47 10 -24 22 -20 63 24 40 42
112 77 139 67 19 -8 19 -46 -1 -75 -30 -43 9 -24 66 33 30 30 60 55 66 55 17
0 25 -56 13 -88 -9 -24 -6 -23 38 18 26 25 51 51 56 58 25 38 56 -23 37 -73
-9 -23 -8 -24 10 -13 11 7 20 16 20 19 0 14 59 69 74 69 25 0 19 -31 -11 -63
-21 -22 -23 -27 -8 -19 11 6 35 26 54 46 51 52 72 25 29 -37 l-22 -32 26 23
c17 15 28 20 33 13 7 -13 -114 -151 -132 -151 -19 0 -16 31 7 68 l20 33 -21
-11 c-16 -9 -24 -8 -38 4 -15 14 -20 13 -46 -4 -36 -24 -63 -25 -93 -4 -20 14
-24 14 -44 0 -28 -20 -58 -20 -86 -1 -19 14 -24 14 -47 -1 -28 -18 -55 -13
-55 12 0 16 -1 16 -18 1 -21 -20 -43 -22 -59 -6 -8 8 -18 6 -36 -6 -14 -9 -34
-15 -44 -13 -10 1 -23 -1 -30 -5 -7 -5 -44 10 -89 34 l-77 42 -29 -36 c-30
-38 -58 -48 -58 -23 0 8 11 28 25 44 14 17 25 40 25 51 0 14 12 29 35 42 20
12 40 30 46 41 10 18 8 19 -13 13 -12 -4 -44 -18 -70 -31 -60 -30 -68 -30 -68
1 0 30 45 79 65 72 7 -3 26 -2 42 3 43 13 79 11 92 -4z"/>
<path d="M1287 322 c-13 -14 -15 -22 -7 -27 16 -10 33 9 28 30 -3 16 -5 15
-21 -3z"/>
<path d="M1417 322 c-13 -14 -15 -22 -7 -27 16 -10 33 9 28 30 -3 16 -5 15
-21 -3z"/>
<path d="M1111 309 c-12 -12 -20 -24 -16 -27 3 -3 18 6 33 21 31 32 16 37 -17
6z"/>
<path d="M1526 121 c-4 -5 -2 -12 3 -15 5 -4 12 -2 15 3 4 5 2 12 -3 15 -5 4
-12 2 -15 -3z"/>
<path d="M1415 110 c3 -5 8 -10 11 -10 2 0 4 5 4 10 0 6 -5 10 -11 10 -5 0 -7
-4 -4 -10z"/>
<path d="M1640 95 c0 -14 5 -25 10 -25 6 0 10 11 10 25 0 14 -4 25 -10 25 -5
0 -10 -11 -10 -25z"/>
<path d="M920 70 c0 -11 7 -20 15 -20 13 0 14 4 5 20 -6 11 -13 20 -15 20 -3
0 -5 -9 -5 -20z"/>
</g>
</svg>
